# xmcd CD database file
#
# Track frame offsets:
#	150
#	19382
#	34806
#	59852
#	76848
#	93464
#	111698
#	123564
#	136513
#	148377
#	167076
#	178802
#	195328
#	206139
#	217655
#	231730
#
# Disc length: 3231 seconds
#
# Revision: 0
# Processed by: cddbd v1.5.2PL0 Copyright (c) Steve Scherf et al.
# Submitted via: CDex 1.51
#
DISCID=f70c9d10
DTITLE=Various Artist - Cuba - The Intro Collection - CD 3
DYEAR=2008
DGENRE=Salsa
TTITLE0=Compay Segundo - Chan Chan
TTITLE1=Ibrahim Ferrer - Ay, Candela
TTITLE2=Elena Burke Y Orquesta Aragon - Son Al Son
TTITLE3=Eliades Ochoa Y Cuarteto Patria - Al Valven De Mi Careta
TTITLE4=Compay Segundo - Como La Avelleneda
TTITLE5=Omara Portuondo - La Ultima Noche
TTITLE6=Ibrahim Ferrer,Chepin Y Su Orquesta Oriental - Fomento
TTITLE7=Ruben Gonzalez Y Orquesta America - Bilonga
TTITLE8=Conjunto Luis Grinan - Quimbombo
TTITLE9=Compay Segundo - Probre Corazon
TTITLE10=Omara Portuondo - Alli
TTITLE11=Omara Portuondo - Echale Slsita
TTITLE12=Omara Portuondo - Quizas, Quizas, Quizas
TTITLE13=Beny More - Barbara Bitiri
TTITLE14=Beny More - Barbaro Del Ritmo
TTITLE15=Beny More Yiriyiribon
EXTD=YEAR: 2008
EXTT0=
EXTT1=
EXTT2=
EXTT3=
EXTT4=
EXTT5=
EXTT6=
EXTT7=
EXTT8=
EXTT9=
EXTT10=
EXTT11=
EXTT12=
EXTT13=
EXTT14=
EXTT15=
PLAYORDER=
